<?xml version="1.0" encoding="utf-8"?>
<!-- Generator: Adobe Illustrator 19.0.0, SVG Export Plug-In . SVG Version: 6.00 Build 0)  -->
<svg version="1.1" id="Layer_1" xmlns="http://www.w3.org/2000/svg" xmlns:xlink="http://www.w3.org/1999/xlink" x="0px" y="0px"
	 viewBox="-18 198.8 639 396" style="enable-background:new -18 198.8 639 396;" xml:space="preserve">
<style type="text/css">
	.st0{fill:#ffffff;}
</style>
<g id="XMLID_1_">
	<path id="XMLID_3_" class="st0" d="M2,271.2h151.3l40.7,40.7v77.4l-32,32.9l32,32.4v84l-41.8,40.5H2V271.2z M81.8,389.4h32v-49.9
		h-32V389.4z M81.8,511h32v-55h-32V511z"/>
	<path id="XMLID_7_" class="st0" d="M220.1,271.2h77.2v60.6h-77.2L220.1,271.2L220.1,271.2z M220.1,349.7h77.2v229.5h-77.2
		L220.1,349.7L220.1,349.7z"/>
	<path id="XMLID_10_" class="st0" d="M322.5,350.1h77.2v16.2l18.4-16.2h57.4l31.7,31.1v197.9H430V410.7h-30.3v168.5h-77.2V350.1z"/>
	<path id="XMLID_12_" class="st0" d="M523.8,291.7l16.7-16.7l28.8-4v-20.5h-12.9v12.9l-32.5,0.2l-0.2-24.5l16.5-16.5h45.2l16.5,16.7
		v43.4l-16.3,16.5l-29.4,4.3V319h45.3v28.8h-77.8v-56.1H523.8z"/>
</g>
</svg>
